<svg width="16" height="16" viewBox="0 0 16 16" fill="none" xmlns="http://www.w3.org/2000/svg">
<path fill-rule="evenodd" clip-rule="evenodd" d="M6.4951 12.9902C2.90795 12.9902 0 10.0822 0 6.4951C0 2.90795 2.90795 0 6.4951 0C10.0822 0 12.9902 2.90795 12.9902 6.4951C12.9902 7.99605 12.4811 9.37809 11.6261 10.4779L16 14.8518L14.8518 16L10.4779 11.6261C9.37807 12.4811 7.99604 12.9902 6.4951 12.9902ZM11.3665 6.49512C11.3665 9.18548 9.18554 11.3664 6.49518 11.3664C3.80483 11.3664 1.62386 9.18548 1.62386 6.49512C1.62386 3.80476 3.80483 1.62379 6.49518 1.62379C9.18554 1.62379 11.3665 3.80476 11.3665 6.49512Z" fill="white"/>
</svg>
